HIERARCHY
ROOT Hips
{
	OFFSET 0.000000 0.000000 0.000000
	CHANNELS 6 Xposition Yposition Zposition Xrotation Yrotation Zrotation
	JOINT LeftUpLeg_virtual
	{
		OFFSET 0.000000 0.000000 0.000000
		CHANNELS 3 Xrotation Yrotation Zrotation
		JOINT LeftUpLeg
		{
			OFFSET 15.427100 -6.655098 0.678600
			CHANNELS 3 Xrotation Yrotation Zrotation
			JOINT LeftLeg
			{
				OFFSET 4.081073 -39.591068 13.024000
				CHANNELS 3 Xrotation Yrotation Zrotation
				JOINT LeftFoot
				{
					OFFSET -4.081074 -37.707932 -15.979700
					CHANNELS 3 Xrotation Yrotation Zrotation
					JOINT LeftToeBase
					{
						OFFSET 5.346399 -15.068900 20.645000
						CHANNELS 3 Xrotation Yrotation Zrotation
						JOINT LeftToe_End
						{
							OFFSET 2.754700 0.931300 11.300900
							CHANNELS 3 Xrotation Yrotation Zrotation
							End Site
							{
								OFFSET 0 0 0
							}
						}
					}
				}
			}
		}
	}
	JOINT RightUpLeg_virtual
	{
		OFFSET 0.000000 0.000000 0.000000
		CHANNELS 3 Xrotation Yrotation Zrotation
		JOINT RightUpLeg
		{
			OFFSET -15.569500 -6.655098 0.678600
			CHANNELS 3 Xrotation Yrotation Zrotation
			JOINT RightLeg
			{
				OFFSET -4.081825 -39.591045 13.023800
				CHANNELS 3 Xrotation Yrotation Zrotation
				JOINT RightFoot
				{
					OFFSET 4.081824 -37.707954 -15.979600
					CHANNELS 3 Xrotation Yrotation Zrotation
					JOINT RightToeBase
					{
						OFFSET -5.346400 -15.068900 20.645000
						CHANNELS 3 Xrotation Yrotation Zrotation
						JOINT RightToe_End
						{
							OFFSET -2.754700 0.931300 11.300900
							CHANNELS 3 Xrotation Yrotation Zrotation
							End Site
							{
								OFFSET 0 0 0
							}
						}
					}
				}
			}
		}
	}
	JOINT Spine_virtual
	{
		OFFSET 0.000000 0.000000 0.000000
		CHANNELS 3 Xrotation Yrotation Zrotation
		JOINT Spine
		{
			OFFSET -0.279200 12.230698 -2.892100
			CHANNELS 3 Xrotation Yrotation Zrotation
			JOINT Spine1
			{
				OFFSET -0.232667 10.192268 -1.242267
				CHANNELS 3 Xrotation Yrotation Zrotation
				JOINT Spine1_split
				{
					OFFSET -0.232667 10.192268 -1.242267
					CHANNELS 3 Xrotation Yrotation Zrotation
					JOINT Spine2
					{
						OFFSET -0.232667 10.192268 -1.242267
						CHANNELS 3 Xrotation Yrotation Zrotation
						JOINT Neck_virtual
						{
							OFFSET 0.000000 0.000000 0.000000
							CHANNELS 3 Xrotation Yrotation Zrotation
							JOINT Neck
							{
								OFFSET -0.418800 17.814194 8.416900
								CHANNELS 3 Xrotation Yrotation Zrotation
								JOINT Head
								{
									OFFSET 0.000000 7.031097 3.806800
									CHANNELS 3 Xrotation Yrotation Zrotation
									JOINT HeadTop_End
									{
										OFFSET 0.000000 24.646606 12.978600
										CHANNELS 3 Xrotation Yrotation Zrotation
										End Site
										{
											OFFSET 0 0 0
										}
									}
								}
							}
						}
						JOINT LeftShoulder_virtual
						{
							OFFSET 0.000000 0.000000 0.000000
							CHANNELS 3 Xrotation Yrotation Zrotation
							JOINT LeftShoulder
							{
								OFFSET 8.476499 7.247704 -3.868750
								CHANNELS 3 Xrotation Yrotation Zrotation
								JOINT LeftShoulder_split
								{
									OFFSET 8.476499 7.247704 -3.868750
									CHANNELS 3 Xrotation Yrotation Zrotation
									JOINT LeftArm
									{
										OFFSET 9.308998 -2.777710 0.208600
										CHANNELS 3 Xrotation Yrotation Zrotation
										JOINT LeftForeArm
										{
											OFFSET 29.972298 0.000000 0.000000
											CHANNELS 3 Xrotation Yrotation Zrotation
											JOINT LeftHand
											{
												OFFSET 26.026505 0.000000 0.000000
												CHANNELS 3 Xrotation Yrotation Zrotation
												End Site
												{
													OFFSET 0 0 0
												}
											}
										}
									}
								}
							}
						}
						JOINT RightShoulder_virtual
						{
							OFFSET 0.000000 0.000000 0.000000
							CHANNELS 3 Xrotation Yrotation Zrotation
							JOINT RightShoulder
							{
								OFFSET -7.570500 7.247704 -3.868750
								CHANNELS 3 Xrotation Yrotation Zrotation
								JOINT RightShoulder_split
								{
									OFFSET -7.570500 7.247704 -3.868750
									CHANNELS 3 Xrotation Yrotation Zrotation
									JOINT RightArm
									{
										OFFSET -9.308998 -2.777710 0.208500
										CHANNELS 3 Xrotation Yrotation Zrotation
										JOINT RightForeArm
										{
											OFFSET -29.972300 0.000000 0.000000
											CHANNELS 3 Xrotation Yrotation Zrotation
											JOINT RightHand
											{
												OFFSET -26.026505 0.000000 0.000000
												CHANNELS 3 Xrotation Yrotation Zrotation
												End Site
												{
													OFFSET 0 0 0
												}
											}
										}
									}
								}
							}
						}
					}
				}
			}
		}
	}
}
MOTION
Frames: 9
Frame Time: 0.03333333
-36.821365 89.513290 -37.812759 0.000000 0.000000 0.000000 3.338137 -1.607749 1.580339 -47.902227 3.656532 8.153251 41.726394 12.784891 0.723341 17.649031 9.056115 -3.587887 -6.829324 0.214341 1.017225 0.000000 0.000000 0.000000 4.151649 -0.780652 1.565317 4.911063 -16.039133 -6.985414 14.335467 -6.258910 -2.425495 -8.452067 -5.733011 18.625958 -12.418071 0.870255 0.205632 0.000000 0.000000 0.000000 3.455564 0.628173 0.646952 2.951793 1.617887 -5.389477 2.275986 2.332978 -0.928753 0.924083 0.249238 0.080208 0.000000 0.000000 0.000000 2.060736 2.349702 -1.197045 0.705039 0.582022 0.559634 -1.343901 11.662549 3.190345 0.000000 0.000000 0.000000 1.460816 2.373580 -1.498635 0.552720 -2.923082 -12.022303 -0.878903 -0.451492 1.918716 -11.160251 23.251771 -36.274585 -1.329311 -63.182091 -0.498554 0.000000 0.000000 0.000000 1.726816 2.732604 -0.639823 1.042960 -2.498949 9.478487 2.269252 1.953607 -2.464387 -15.442252 -16.652126 46.643850 0.243549 15.728881 -0.086576 0.000000 0.000000 0.000000 
-35.809937 91.592255 -38.849434 0.000000 0.000000 0.000000 3.575098 -1.971515 2.338784 -42.196239 2.516470 11.120448 46.522867 11.095898 0.071711 12.923347 12.114503 -1.896133 -4.799798 0.419784 -0.963688 0.000000 0.000000 0.000000 4.713007 -1.100236 2.260679 0.184349 -16.589490 -11.828896 15.905894 -5.291076 -1.062443 -4.957388 -3.529900 19.027310 -14.129757 1.146257 -0.316489 0.000000 0.000000 0.000000 3.929719 0.559317 1.236147 2.807192 2.196257 -5.921868 1.704693 3.287982 -1.343108 0.617798 0.168668 0.216137 0.000000 0.000000 0.000000 1.572609 3.232616 -1.522753 -0.037673 0.289967 1.212235 -2.027616 9.592529 3.616914 0.000000 0.000000 0.000000 1.038668 3.309928 -1.966811 0.881611 -2.902906 -12.301856 -1.236251 -0.840886 2.191610 3.093335 29.284842 -43.597118 -1.076633 -65.213704 -0.480828 0.000000 0.000000 0.000000 1.327546 3.638982 -1.074630 1.020507 -2.342663 8.781478 2.893663 1.717112 -2.387279 -17.761120 -16.893003 44.628039 0.284898 16.984896 -0.441586 0.000000 0.000000 0.000000 
-34.517002 92.887672 -39.853195 0.000000 0.000000 0.000000 4.254119 -2.108189 2.238169 -36.457671 1.176943 15.444755 47.320548 10.422113 -0.521508 9.750018 15.766139 -0.156184 -0.803331 0.771631 -4.031111 0.000000 0.000000 0.000000 5.598477 -1.177080 2.234639 -2.563227 -15.717286 -15.745587 16.129229 -4.403505 0.030410 -3.280172 -2.237858 18.906882 -14.388868 1.314907 -0.463731 0.000000 0.000000 0.000000 4.845920 0.221730 1.175624 2.433434 2.696539 -6.071705 1.042801 4.080419 -1.577374 0.562645 0.192951 0.273343 0.000000 0.000000 0.000000 0.904437 3.962406 -1.709687 -0.779426 0.028525 1.816022 -2.095429 7.276017 4.073057 0.000000 0.000000 0.000000 0.508857 4.067557 -2.211077 1.160197 -2.704676 -11.745478 -1.800990 -1.450394 2.147490 15.640735 32.946254 -50.943789 -0.528037 -64.204502 -0.141595 0.000000 0.000000 0.000000 0.891839 4.386867 -1.346593 1.093311 -2.405824 8.304357 3.064914 1.676489 -2.077312 -19.460047 -17.629504 42.788099 0.207064 17.977638 -0.652750 0.000000 0.000000 0.000000 
-32.963177 93.178925 -40.719505 0.000000 0.000000 0.000000 5.421253 -1.252063 1.305300 -31.229141 0.053893 20.946933 44.602665 10.280237 -0.889919 8.033908 18.622238 0.408174 2.005465 1.003410 -7.023764 0.000000 0.000000 0.000000 6.494980 -0.113261 1.412768 -2.789334 -13.902378 -18.081258 14.916237 -3.724928 0.705097 -3.084242 -1.971819 19.242094 -13.840992 1.373431 -0.379035 0.000000 0.000000 0.000000 5.923837 0.611233 0.535680 1.885645 3.068436 -5.811172 0.394481 4.597794 -1.663617 0.961528 0.256666 0.513155 0.000000 0.000000 0.000000 0.192180 4.431842 -1.767160 -1.394493 -0.237270 2.247843 -1.609372 4.881714 4.506984 0.000000 0.000000 0.000000 -0.044777 4.528925 -2.235009 1.373820 -2.443675 -10.589350 -2.628584 -1.712554 1.553623 24.054999 35.186867 -56.501043 0.041650 -60.505955 0.309872 0.000000 0.000000 0.000000 0.477512 4.866765 -1.451662 1.239820 -2.556637 8.024236 2.776803 1.803304 -1.413376 -20.502899 -18.603642 40.839610 0.071186 18.999544 -0.684185 0.000000 0.000000 0.000000 
-31.128519 92.318756 -41.569016 0.000000 0.000000 0.000000 6.684252 1.022918 -0.048044 -27.670346 -0.305859 27.062424 40.454903 9.910955 -1.140224 7.749890 19.031180 -0.862735 1.850174 1.127207 -8.724999 0.000000 0.000000 0.000000 7.353391 2.520806 0.028649 -1.444588 -11.873581 -19.112816 12.703691 -3.107830 0.950668 -3.714198 -2.427532 21.193138 -13.284303 1.346292 -0.303890 0.000000 0.000000 0.000000 6.992783 2.078896 -0.462459 1.323584 3.280628 -5.187899 -0.166473 4.795693 -1.669043 1.329888 0.566618 0.619942 0.000000 0.000000 0.000000 -0.478452 4.585405 -1.748993 -1.724144 -0.558939 2.474148 -0.771059 2.727425 4.823894 0.000000 0.000000 0.000000 -0.557582 4.655599 -2.097834 1.500883 -2.159544 -9.079727 -3.564925 -1.699329 0.596964 27.909258 37.131630 -59.501808 0.407657 -54.408693 0.637838 0.000000 0.000000 0.000000 0.149294 5.027060 -1.433602 1.416619 -2.771689 7.925069 2.372805 1.788107 -0.590582 -20.800168 -19.462479 38.721203 -0.037157 20.208291 -0.575038 0.000000 0.000000 0.000000 
-29.054636 90.520065 -42.289566 0.000000 0.000000 0.000000 7.913948 4.510011 -1.354682 -26.332628 -0.212453 32.860003 36.656293 8.530065 -1.341533 9.393446 16.108781 -4.765148 -1.748534 1.180565 -8.209859 0.000000 0.000000 0.000000 7.991101 6.507089 -1.367337 0.717344 -10.226053 -19.541362 10.687445 -2.438521 0.906994 -4.829240 -3.592630 24.633202 -12.715028 1.258975 -0.385683 0.000000 0.000000 0.000000 7.844317 4.788872 -1.376455 0.815066 3.305836 -4.401310 -0.573701 4.675983 -1.661647 1.596723 0.939715 0.489383 0.000000 0.000000 0.000000 -1.043644 4.436585 -1.717792 -1.767762 -0.936523 2.545982 0.177717 0.977021 4.972559 0.000000 0.000000 0.000000 -0.951957 4.489473 -1.895800 1.559155 -1.980471 -7.615850 -4.594481 -1.363185 -0.742662 27.968607 39.202444 -60.031311 0.444745 -46.705684 0.738443 0.000000 0.000000 0.000000 -0.089049 4.870543 -1.380006 1.555975 -3.029338 7.904324 1.981766 1.693692 0.345112 -20.468988 -20.005303 36.460065 0.029657 21.601228 -0.491514 0.000000 0.000000 0.000000 
-26.768652 88.212952 -42.890755 0.000000 0.000000 0.000000 8.761692 8.725581 -2.100563 -26.575072 -0.116790 37.071808 34.248027 6.261716 -1.429865 11.278853 10.793059 -9.907011 -6.824723 0.920564 -5.879978 0.000000 0.000000 0.000000 8.402436 11.296582 -2.296722 2.859711 -9.492501 -20.073846 10.131147 -2.149669 0.800166 -6.367464 -5.726445 27.730997 -11.222595 1.119151 -0.517675 0.000000 0.000000 0.000000 8.426535 8.827497 -1.922560 0.404506 3.171831 -3.725917 -0.857096 4.326367 -1.652842 1.738195 1.171943 0.317394 0.000000 0.000000 0.000000 -1.465027 4.053726 -1.697481 -1.666827 -1.396939 2.496445 0.956328 -0.210967 4.908517 0.000000 0.000000 0.000000 -1.168516 4.115148 -1.690893 1.577391 -1.918248 -6.549972 -5.060838 -0.877009 -1.875895 25.560402 40.738079 -58.452896 0.340182 -38.825705 0.689606 0.000000 0.000000 0.000000 -0.272274 4.476895 -1.334641 1.597781 -3.373277 8.015557 1.698556 1.665159 0.951498 -19.986262 -20.473183 34.454216 0.308531 23.228732 -0.560535 0.000000 0.000000 0.000000 
-24.301697 85.904449 -43.716148 0.000000 0.000000 0.000000 9.189827 13.338633 -2.061760 -27.341623 0.254582 38.777050 32.904511 4.297476 -1.286991 11.090155 5.452461 -14.649811 -9.465195 0.347100 -3.038715 0.000000 0.000000 0.000000 8.610859 16.004310 -2.382709 4.326757 -9.601188 -21.306268 11.356586 -2.485490 0.606130 -8.839936 -8.740005 28.696384 -8.655275 0.967634 -0.559799 0.000000 0.000000 0.000000 8.829912 13.196224 -1.874550 0.047078 2.903102 -3.267539 -1.010203 3.852487 -1.637213 1.818565 1.309885 -0.059780 0.000000 0.000000 0.000000 -1.735419 3.562140 -1.701207 -1.496328 -1.867789 2.455365 1.503417 -0.774903 4.610392 0.000000 0.000000 0.000000 -1.223622 3.642505 -1.522477 1.540848 -2.016868 -6.064105 -5.087827 -0.630147 -2.549411 22.063707 41.183285 -55.705380 0.133541 -31.948428 0.518335 0.000000 0.000000 0.000000 -0.403450 3.970170 -1.322787 1.533985 -3.827853 8.256828 1.337624 1.695774 1.099993 -20.079563 -20.961734 33.210077 0.727464 25.332956 -0.800257 0.000000 0.000000 0.000000 
-21.650087 84.126564 -44.509071 0.000000 0.000000 0.000000 9.241022 17.864061 -1.350859 -27.174548 1.128337 37.789623 31.478747 3.244283 -0.754135 8.769800 1.858232 -19.176953 -8.749454 -0.123387 -0.943172 0.000000 0.000000 0.000000 8.667368 20.031471 -1.661021 4.648505 -9.912304 -23.509112 14.983702 -3.323315 0.434434 -11.915705 -11.880276 26.642739 -6.391163 0.830110 -0.361407 0.000000 0.000000 0.000000 8.969291 17.460318 -1.212168 -0.312829 2.542552 -3.043889 -1.038055 3.353904 -1.603139 1.982459 0.958324 -0.149288 0.000000 0.000000 0.000000 -1.814900 3.101669 -1.704275 -1.429954 -2.235242 2.447243 1.737274 -0.743519 4.112654 0.000000 0.000000 0.000000 -1.193763 3.194862 -1.396681 1.453515 -2.285676 -6.280800 -4.589368 -0.638227 -2.693470 18.556178 40.361920 -52.858062 -0.143695 -26.860361 0.261297 0.000000 0.000000 0.000000 -0.524788 3.483477 -1.326889 1.408634 -4.310639 8.596152 0.851527 1.837739 0.868198 -21.179812 -21.662416 33.140778 1.137482 28.169302 -1.159176 0.000000 0.000000 0.000000 
